<svg xmlns="http://www.w3.org/2000/svg" width="80.687" height="80.687" viewBox="0 0 80.687 80.687"><rect width="80.687" height="80.687" rx="40.344" fill="#ef626c"/><path d="M1449.147-460.177s-4.561,1.254-6.728,3.307-4.561,8.1-2.623,12.543,9.122,17.674,13.455,22.463,15.85,16.648,24.287,16.306,11.745-3.421,12.771-5.7,1.824-3.877.684-5.245-7.877-8.186-11.411-5.359-6.6,9.131-14.371,1.357-16.725-18.847-11.961-21.674,11.631-7.049,10.262-8.874c-.735-.98-3.824-8.175-7.07-9.578C1453.671-461.832,1449.147-460.177,1449.147-460.177Z" transform="translate(-1424.835 473.872)" fill="none" stroke="#000" stroke-width="2"/></svg>