<svg xmlns="http://www.w3.org/2000/svg" width="1920.409" height="419.229" viewBox="0 0 1920.409 419.229"><g transform="translate(-9461 2160.978)"><path d="M0,0H1920.409V405.9H0Z" transform="translate(9461 -2147.65)" fill="#0d8cc4"/><path d="M11385.438-2002.764c-206.666-108.8-433.84-133.657-660.9-113.194s-402.975,221.087-765.181,230.495-494.318-100.223-494.318-100.223V-2159.9h1920.4Z" transform="translate(-4.029 55.279)" fill="#359ecc"/><path d="M11385.438-1988.321s-280.294-160.586-670.317-116.781c-326.484,36.668-369.032,214.19-774.46,217.741-387.508-9.1-475.623-116.167-475.623-116.167V-2159.9h1920.4Z" transform="translate(-4.029 18.698)" fill="#51b5e9"/><path d="M11385.036-2003.527c-137.768-50.028-355.147-162.932-722.054-104.683s-399.838,211.679-718.14,213.247-479.806-108.564-479.806-108.564V-2159.9h1920Z" transform="translate(-3.628 -1.076)" fill="#66c3ff"/></g></svg>