<svg xmlns="http://www.w3.org/2000/svg" width="174.014" height="174.014" viewBox="0 0 174.014 174.014"><g transform="translate(-2485.564 -888)"><g transform="translate(2485.564 888)"><path d="M87.007,0A87.007,87.007,0,1,1,0,87.007,87.007,87.007,0,0,1,87.007,0Z" fill="#ef626c"/></g><g transform="translate(100.368 650.477)"><g transform="translate(2444.146 254)" fill="none" stroke="#000" stroke-width="3"><circle cx="28.513" cy="28.513" r="28.513" stroke="none"/><circle cx="28.513" cy="28.513" r="27.013" fill="none"/></g><g transform="translate(2438.893 318.188)"><path d="M2470.36,511.115c-22.615-38.75-7.538-56.207-7.538-56.207s6.613-10.977,28.831-10.448" transform="translate(-2457.899 -444.442)" fill="none" stroke="#000" stroke-width="3"/><path d="M2479.192,511.115c22.615-38.75,7.538-56.207,7.538-56.207s-6.613-10.977-28.831-10.448" transform="translate(-2424.216 -444.442)" fill="none" stroke="#000" stroke-width="3"/></g></g></g></svg>