<svg xmlns="http://www.w3.org/2000/svg" viewBox="0 0 70.5 187.5"><defs><style>.cls-1{fill:none;stroke-width:6px;}.cls-1,.cls-2{stroke:#000;stroke-miterlimit:10;}</style></defs><title>Asset 1</title><g id="Layer_2" data-name="Layer 2"><g id="Layer_1-2" data-name="Layer 1"><line class="cls-1" x1="3" y1="162.62" x2="3" y2="35.25"/><line class="cls-1" x1="67.5" y1="160.5" x2="67.5" y2="34.5"/><line class="cls-1" x1="18.7" y1="62.5" x2="18.7" y2="160.1"/><path class="cls-1" d="M67.5,35.25A32.23,32.23,0,0,0,35.25,3"/><path class="cls-1" d="M3,35.25A32.23,32.23,0,0,1,35.25,3"/><path class="cls-1" d="M18.7,160.1a24.38,24.38,0,0,0,24.4,24.4"/><path class="cls-1" d="M67.5,160.1a24.38,24.38,0,0,1-24.4,24.4"/><line class="cls-1" x1="51" y1="128.25" x2="51" y2="63.65"/><path class="cls-1" d="M51,63.65A16.14,16.14,0,0,0,34.85,47.5"/><path class="cls-1" d="M18.7,63.65A16.14,16.14,0,0,1,34.85,47.5"/><circle class="cls-2" cx="3" cy="162.5" r="2.5"/><circle class="cls-2" cx="51" cy="128.5" r="2.5"/></g></g></svg>